<?xml version="1.0" standalone="no"?><!DOCTYPE svg PUBLIC "-//W3C//DTD SVG 1.1//EN" "http://www.w3.org/Graphics/SVG/1.1/DTD/svg11.dtd"><svg t="1595918585941" class="icon" viewBox="0 0 1026 1024" version="1.1" xmlns="http://www.w3.org/2000/svg" p-id="34313" xmlns:xlink="http://www.w3.org/1999/xlink" width="200.390625" height="200"><defs><style type="text/css"></style></defs><path d="M642.048 785.408H483.84V655.36h138.752v-44.032H483.84V486.912h149.504v-44.544h-199.68V829.44h208.384v-44.032z m59.904-505.856h12.288c25.088 0 42.496-16.384 42.496-39.424V100.864c0-23.04-17.408-39.424-42.496-39.424h-12.288c-25.088 0-42.496 16.384-42.496 39.424V245.76c0 19.456 25.6 33.792 42.496 33.792z m-404.48 0H309.76c25.088 0 42.496-16.384 42.496-39.424V100.864c0-23.04-17.408-39.424-42.496-39.424h-12.288c-25.088 0-42.496 16.384-42.496 39.424V245.76c0 16.384 16.384 33.792 42.496 33.792z m726.528-17.408c-6.144-64.512-63.488-131.072-147.968-131.072h-92.16v73.216h92.16c31.232 0 57.344 24.576 57.344 53.248v47.616h-855.04v-47.616c0-28.672 26.112-53.248 57.344-53.248h92.16V131.072H141.824C63.488 131.072 0 190.464 0 263.168v562.176c0 72.704 63.488 132.096 141.824 132.096h740.352c78.336 0 141.824-59.392 141.824-132.096v-563.2zM939.52 819.712c0 34.816-26.112 58.88-63.488 58.88H141.824c-31.232 0-57.344-24.576-57.344-53.248V383.488h855.04v436.224zM644.608 131.072h-271.36v73.216h271.36V131.072z" p-id="34314" fill="#1296db"></path></svg>