<?xml version="1.0" standalone="no"?><!DOCTYPE svg PUBLIC "-//W3C//DTD SVG 1.1//EN" "http://www.w3.org/Graphics/SVG/1.1/DTD/svg11.dtd"><svg t="1594384292146" class="icon" viewBox="0 0 1024 1024" version="1.1" xmlns="http://www.w3.org/2000/svg" p-id="1262" xmlns:xlink="http://www.w3.org/1999/xlink" width="200" height="200"><defs><style type="text/css"></style></defs><path d="M870.4 1024H153.6c-56.32 0-102.4-46.08-102.4-102.4V102.4c0-56.32 46.08-102.4 102.4-102.4h716.8c56.32 0 102.4 46.08 102.4 102.4v819.2c0 56.32-46.08 102.4-102.4 102.4z m0-921.6H153.6v819.2h716.8V102.4z" p-id="1263"></path><path d="M665.6 307.2H358.4c-30.72 0-51.2 20.48-51.2 51.2s20.48 51.2 51.2 51.2h102.4v256c0 30.72 20.48 51.2 51.2 51.2s51.2-20.48 51.2-51.2V409.6h102.4c30.72 0 51.2-20.48 51.2-51.2s-20.48-51.2-51.2-51.2z" p-id="1264"></path></svg>