<?xml version="1.0" standalone="no"?><!DOCTYPE svg PUBLIC "-//W3C//DTD SVG 1.1//EN" "http://www.w3.org/Graphics/SVG/1.1/DTD/svg11.dtd"><svg t="1595493704458" class="icon" viewBox="0 0 1024 1024" version="1.1" xmlns="http://www.w3.org/2000/svg" p-id="2843" xmlns:xlink="http://www.w3.org/1999/xlink" width="200" height="200"><defs><style type="text/css"></style></defs><path d="M863.6 612.6l-52.3-18.1c-16.1-5.6-33.7 2.8-39.5 18.8-3.4 9.1-6.7 18.3-10 27.5-7.1 19.5-14.4 39.8-22.3 59.1-30.7 75.2-64.9 140.8-104.8 201-0.8 1.2-2.3 1.9-3.7 1.6-8.9-1.6-17.8-3-26.7-4.4-10.8-1.7-21.7-3.5-32.5-5.5h-0.1c-2.6-0.5-3.9-3.5-2.4-5.7 36-54.3 57-92.5 62.4-113.9 5.1-20.1-18.8-34.7-34.4-21l-6.7 5.9c-3.9 3.4-7.5 6.6-11.1 9.7-30 25.7-66.6 54.5-109.4 73-24.5 10.6-40.1 10.9-56.9 1.1-7.1-4.2-14.3-8-21.5-11.7-9-4.6-11.5-16.2-5.3-24.1 16.1-20.6 31.8-43.7 34.6-58.4 3.8-20-20.1-33.3-35.1-19.4-22.2 20.6-49.8 34.9-83.8 43.7-4.9 1.3-10.1 0.2-14.1-2.8-11.2-8.3-22.5-17-34.4-26.5-4-3.2-2.5-9.6 2.5-10.8 63.3-14.1 119.2-34.8 169.6-62.9 50.8-28.2 90.3-60.7 120.8-99.2 9.3-11.7 17.5-24.1 25.6-36.2 3.6-5.4 7.3-10.9 11.1-16.4 7.1-10.2 3.8-24.3-7-30.4l-65.9-37.1c-9.4-5.3-21.3-2.6-27.5 6.2-3.6 5-7 10.1-10.5 15.1-7 10.2-13.5 19.9-20.8 28.5-34 40.1-79 69.8-141.9 93.6-63.3 23.9-127.4 36.5-190.7 37.3-24.9 0.4-44.8 12.8-54.6 34.1-10.1 22.1-6.6 45.2 9.7 65.1 88 107.2 203.5 188.2 343.2 240.8 74.3 28 151.4 45.9 229.2 53.3 3.2 0.3 6.3 0.5 9.4 0.5 24.8 0 44.1-10.2 57.4-30.3 2.4-3.6 4.9-7 7.5-10.5 2.7-3.7 5.5-7.4 8.1-11.3 56.9-84.1 104.2-179.7 144.7-292.2 3-8.2 5.8-16.6 8.6-25.1l0.8-2.4c5.7-16.2-3-34-19.3-39.6z m-29.7 52.6l-0.1 0.3c-39.3 109.2-85.1 201.7-139.9 282.8-2.2 3.3-4.6 6.6-7 9.8-3 4-6 8-8.8 12.2-5.5 8.3-11.7 11.5-22.3 11.5-1.7 0-3.5-0.1-5.4-0.3-74.1-7-147.6-24.1-218.4-50.8C297.4 880 191 805.4 106.5 702.6c-7.6-9.2-6.4-15.4-3.9-20.7 2.1-4.6 5.7-9.3 16.8-9.4 68.2-0.9 137.2-14.4 205-40 68.9-26 120.9-60.6 159.2-105.8 5-5.9 9.7-12.1 14.1-18.4 5-7 14.4-9.2 21.9-4.9h0.1c8.6 4.8 11.1 16 5.5 24.1-3.9 5.5-7.8 10.9-11.8 16.1-27 34.1-62.3 63.1-108.2 88.5-58.6 32.6-125.4 54.6-204.2 67.4-1.2 0.2-2.4 0.4-4.3 0.8l-22.8 4.3c-8.9 1.7-12 12.8-5.4 18.9l14.9 13.7c3.3 3 6.4 5.9 9.4 8.8 7 6.6 13.6 12.8 20.9 18.8 20.2 16.3 38.9 30.8 57.1 44.1 8.5 6.2 21.6 8.8 32 6.4 7-1.6 13.8-3.4 20.4-5.3 2-0.6 3.5 1.8 2.1 3.4-0.3 0.4-0.7 0.8-1.1 1.2l-5.3 6c-6.6 7.4-4.4 19 4.5 23.5l7.2 3.6c6.6 3.3 13.2 6.4 19.8 9.6 14.6 7 28.4 13.6 41.5 21.3 14.5 8.5 29.9 12.8 46 12.8 15.2 0 30.8-3.7 49-11.6 15.5-6.7 30.2-14.5 44-22.9 3.2-2 6.8 1.8 4.8 4.9-6.4 9.7-13.5 20.2-21.4 31.7-8.5 12.3-1.9 29.2 12.6 32.5 3.9 0.9 7.7 1.8 11.4 2.7 8.7 2.1 17.3 4.2 26 5.8 11.1 2 22.2 3.8 33.3 5.6 11 1.8 22 3.5 32.9 5.6 2.6 0.5 5 0.7 7.2 0.7 17.6 0 26.1-12.6 28.8-16.7 42.6-63.3 79.2-133.1 112.1-213.4 8.2-20.2 15.7-40.8 22.9-60.7l0.6-1.5c3.1-8.7 12.7-13.3 21.5-10.3 8.8 2.7 13.5 12.5 10.3 21.4zM837.7 397.3c-48.6-22.5-98-44.2-144.2-64.3-43.4-18.9-87.8-16.2-128.7 8-25.1 14.8-43.7 36-55.3 63-4.6 10.6 0.2 22.9 10.8 27.6l360.2 160.2c11.2 5 24.2-0.6 28.4-12.1l1.6-4.5c1.4-3.8 2.7-7.2 3.7-10.8 20.2-68.2-11.3-136.9-76.5-167.1z m15 136L582.2 412.9c-12.5-5.6-14.4-22.7-3.3-30.7 2.4-1.7 4.8-3.3 7.4-4.8 29.3-17.3 59.4-19.1 90.4-5.6 45.9 20 95 41.6 143.3 63.9 34.3 15.9 55.1 45.7 57.8 79.7 1.1 13.5-12.6 23.4-25.1 17.9zM954 29.3C940.9 13.5 923.4 4 902.1 0.9c-4-0.6-7.7-0.9-11.1-0.9-19.7 0-34.2 9.3-44.4 28.5L706 292.1c-1.2 2.2-2.3 4.5-3.4 6.8l-1.3 3.3c-3.2 7.9-1.4 17 4.4 23.2l0.4 0.5c1.2 1.3 3.8 4.1 8.2 6l117.6 52.4c7.5 3.3 16.3 0.2 20.1-7.1l3.2-6.2c1.2-2.1 1.9-3.7 2.5-5.4l28.4-78.6c25.3-70 50.7-140.1 76.1-210.1 6.2-17.2 3.4-33.7-8.2-47.6z m-31.5 33.1c-25.4 70-50.8 140.1-76.1 210.2l-15.7 43.3c-3.6 10.1-15 14.9-24.8 10.6l-35.7-15.9c-11.5-5.1-16.2-18.9-10.3-30L883.8 48.4c3.3-6.1 4.2-6.1 7.2-6.1 1.5 0 3.2 0.2 5 0.4 11 1.6 19.1 5.9 25.5 13.7 1.9 2.1 2.2 2.9 1 6z" p-id="2844"></path></svg>