<?xml version="1.0" standalone="no"?><!DOCTYPE svg PUBLIC "-//W3C//DTD SVG 1.1//EN" "http://www.w3.org/Graphics/SVG/1.1/DTD/svg11.dtd"><svg t="1595918612623" class="icon" viewBox="0 0 1024 1024" version="1.1" xmlns="http://www.w3.org/2000/svg" p-id="36612" xmlns:xlink="http://www.w3.org/1999/xlink" width="200" height="200"><defs><style type="text/css"></style></defs><path d="M439.6032 665.6H102.4a51.2 51.2 0 1 1 0-102.4h337.2032L373.4016 496.9984a51.1488 51.1488 0 1 1 72.3968-72.3968l153.6 153.6a51.1488 51.1488 0 0 1 0 72.3968l-153.6 153.6a51.0464 51.0464 0 0 1-72.3968 0 51.1488 51.1488 0 0 1 0-72.3968L439.6032 665.6zM921.6 1024H102.4a51.2 51.2 0 0 1-51.2-51.2v-102.4a51.2 51.2 0 1 1 102.4 0v51.2h716.8V287.6416l-358.4-179.2-358.4 179.2V358.4a51.2 51.2 0 1 1-102.4 0V256c0-19.4048 10.9568-37.12 28.3136-45.824l409.6-204.8c14.3872-7.168 31.3856-7.168 45.7728 0l409.6 204.8c17.3568 8.704 28.3136 26.4192 28.3136 45.824v716.8a51.2 51.2 0 0 1-51.2 51.2z" p-id="36613" fill="#1296db"></path></svg>