<?xml version="1.0" standalone="no"?><!DOCTYPE svg PUBLIC "-//W3C//DTD SVG 1.1//EN" "http://www.w3.org/Graphics/SVG/1.1/DTD/svg11.dtd"><svg t="1595918597134" class="icon" viewBox="0 0 1024 1024" version="1.1" xmlns="http://www.w3.org/2000/svg" p-id="35134" xmlns:xlink="http://www.w3.org/1999/xlink" width="200" height="200"><defs><style type="text/css"></style></defs><path d="M999.936 412.842c-9.553-13.532-24.983-21.612-41.275-21.612h-98.96V246.556c0-28.885-22.885-52.385-51.013-52.385H473.033l-75.998-85.46c-9.634-10.832-23.367-17.044-37.677-17.044H65.31c-28.13 0-51.014 23.5-51.014 52.385v704.544c0 25.314 20.52 45.835 45.834 45.835h756.944c21.426 0 40.763-13.906 48.12-34.606l141.388-397.967c5.86-16.494 3.376-34.819-6.646-49.016zM94.296 722.708V171.667h251.667l75.999 85.46c9.634 10.832 23.366 17.044 37.676 17.044h320.063v117.06H273.155c-20.08 0-38.401 12.153-46.673 30.962v-0.002L94.297 722.708z m702.126 91.723H141.347l150.963-343.2h626.043l-121.93 343.2z" p-id="35135" fill="#1296db"></path></svg>