<svg class="icon" viewBox="0 0 1024 1024" xmlns="http://www.w3.org/2000/svg" width="200" height="200"><defs><style/></defs><path d="M423.52 602.24A128 128 0 0 1 513.28 384a128 128 0 0 1 0 256 128 128 0 0 1-89.76-37.76zM513.44 448a64 64 0 0 0-64 64 64 64 0 0 0 64 64 64 64 0 0 0 0-128z"/><path d="M424.32 912H592l30.4-120.64a297.76 297.76 0 0 0 75.84-40.8l119.2 41.12 75.52-160-73.6-68a400 400 0 0 0 4-56v-5.44a281.76 281.76 0 0 0-.96-28.96l81.6-94.24-83.04-142.56-120.8 33.92a296.48 296.48 0 0 0-97.76-49.12l-17.76 61.44a233.6 233.6 0 0 1 87.36 47.2l12.96 11.04 104.96-29.12 35.2 60.48-71.36 82.4 2.88 16a155.2 155.2 0 0 1 2.24 32v5.76a317.28 317.28 0 0 1-5.92 60.48l-4 17.92 65.28 60.32L784 712.32l-98.72-34.08-13.92 11.68A235.04 235.04 0 0 1 586.08 736l-17.44 5.12L541.6 848h-67.68L444.8 734.08 429.92 728a236.8 236.8 0 0 1-64-39.04l-13.92-12-99.68 36L214.08 648l60.96-61.44-3.2-16a442.24 442.24 0 0 1-4.48-59.68A289.12 289.12 0 0 1 272 475.2l3.2-22.08L200 374.4l34.4-60 115.04 30.4 12.8-11.36a235.52 235.52 0 0 1 66.24-41.92l14.56-6.08L472 176h136v-64H422.56l-33.44 126.88a298.88 298.88 0 0 0-56.16 35.36L203.2 240l-82.4 144 85.92 90.72a260 260 0 0 0-3.36 35.84c0 13.12 1.12 35.68 3.04 54.08l-72.64 73.28L224 791.04l115.2-41.6a300.48 300.48 0 0 0 51.2 31.04z"/></svg>