<?xml version="1.0" standalone="no"?><!DOCTYPE svg PUBLIC "-//W3C//DTD SVG 1.1//EN" "http://www.w3.org/Graphics/SVG/1.1/DTD/svg11.dtd"><svg t="1595918525349" class="icon" viewBox="0 0 1024 1024" version="1.1" xmlns="http://www.w3.org/2000/svg" p-id="33920" xmlns:xlink="http://www.w3.org/1999/xlink" width="200" height="200"><defs><style type="text/css"></style></defs><path d="M514.048 838.656c44.032 0 78.336-9.216 102.912-27.136 24.576-17.92 36.864-44.032 36.864-78.336 0-22.528-7.68-43.008-22.528-61.44-15.36-17.92-41.984-36.352-79.872-54.272-34.304-16.896-56.832-30.208-67.072-40.448-10.24-9.728-15.36-22.528-15.36-38.4 0-17.92 7.68-31.232 22.528-41.472 14.848-9.728 34.304-14.848 57.856-14.848 35.84 0 65.024 8.192 88.576 24.064V452.096c-17.92-9.216-46.08-13.824-84.992-13.824-39.424 0-71.68 9.216-97.792 28.16-25.6 18.944-38.912 44.544-38.912 76.288 0 21.504 6.144 40.448 18.432 56.832 12.288 16.384 37.888 34.304 76.8 53.76 28.16 13.824 47.104 24.064 57.344 30.72 10.24 6.656 17.92 14.336 24.064 23.04 5.632 8.704 8.704 18.432 8.704 29.184 0 38.912-27.136 57.856-81.408 57.856-17.92 0-36.864-3.584-56.32-10.24-19.968-6.656-35.84-15.36-47.616-25.6v56.832c9.216 6.144 24.064 11.776 44.544 15.872 20.48 5.632 37.888 7.68 53.248 7.68z m187.904-556.544h12.288c25.088 0 42.496-16.384 42.496-39.424V103.424c0-23.04-17.408-39.424-42.496-39.424h-12.288c-25.088 0-42.496 16.384-42.496 39.424v144.896c0 19.456 25.6 33.792 42.496 33.792z m-404.48 0h12.288c25.088 0 42.496-16.384 42.496-39.424V103.424c0-23.04-17.408-39.424-42.496-39.424h-12.288c-25.088 0-42.496 16.384-42.496 39.424v144.896c0 16.384 16.384 33.792 42.496 33.792zM1024 264.704c-6.144-64.512-63.488-131.072-147.968-131.072h-92.16v73.216h92.16c31.232 0 57.344 24.576 57.344 53.248V307.2h-855.04v-47.616c0-28.672 26.112-53.248 57.344-53.248h92.16V133.632H141.824C63.488 133.632 0 193.024 0 265.728v562.176c0 72.704 63.488 132.096 141.824 132.096h740.352c78.336 0 141.824-59.392 141.824-132.096v-563.2z m-84.48 557.568c0 34.816-26.112 58.88-63.488 58.88H141.824c-31.232 0-57.344-24.576-57.344-53.248V386.048h855.04v436.224zM644.608 133.632h-271.36v73.216h271.36V133.632z" p-id="33921" fill="#1296db"></path></svg>