<?xml version="1.0" standalone="no"?><!DOCTYPE svg PUBLIC "-//W3C//DTD SVG 1.1//EN" "http://www.w3.org/Graphics/SVG/1.1/DTD/svg11.dtd"><svg t="1594373843335" class="icon" viewBox="0 0 1024 1024" version="1.1" xmlns="http://www.w3.org/2000/svg" p-id="3444" xmlns:xlink="http://www.w3.org/1999/xlink" width="200" height="200"><defs><style type="text/css"></style></defs><path d="M875.6 724c0 128.5-162.8 160-363.6 160s-363.6-31.5-363.6-160S311.2 418.6 512 418.6 875.6 595.5 875.6 724z" fill="#C7F1FF" p-id="3445"></path><path d="M508 517.1m-299 0a299 299 0 1 0 598 0 299 299 0 1 0-598 0Z" fill="#00B1FF" p-id="3446"></path><path d="M714.3 524.3c-1.8-23.8 33.9-49.5 24.8-68.8-9.2-19.3-14.7-7.3-24.8-37.6-5.2-15.5-2.6-24.4 1-29.5-8.2-13.2-17.7-25.6-28.2-37-14.1 0.4-20.4 6.4-33.4 2.3-17.4-5.5-17.4 60.5-43.1 40.3-25.7-20.2-14.7-22-21.3-46.4-6.7-24.4-41-1.3-52-12.3S518 305 508 311.5s-23.8 17.4-45.7 32.1c-21.9 14.7 19.2 46.8 39.3 45.8 20.2-0.9 13.8-29.3 16.5-35.8 2.8-6.4 14.7 11 25.7 0s19.3 12.8 28.4 32.1c9.2 19.3 39.4 8.3 27.5 27.5-11.9 19.3-21.1 3.7-53.2 6.4-32.1 2.8-11 29.3-34.8 42.2-23.8 12.8 7.3 20.2-3.7 26.6s-21.1-7.3-41.3-8.3c-20.2-0.9-6.4 24.8 20.2 36.7 26.6 11.9 22 11 35.8 7.3 1.8-0.5 3.1-0.1 4 0.9 11.9-2.1 24.2 2 32.8 10.6 2.3 2.3 4.8 4.7 7.2 6.8 8.3 7.3 17.4 15.6 22 24.8 4.6 9.2 13.8 20.2 44 20.2s67.9 7.3 44 22.9c-23.8 15.6-20.2 33-28.9 45.3-8.7 12.3-11.4 21.6-37.1 36.3-25.7 14.7-13.8 29.3-31.7 31.5-17.9 2.2-21.5 19.8-41.7 17.1-20.2-2.8-10.1-29.3-11-45.8-0.9-16.5 15.6-33.9 10.7-51.4s-46.4-31.1-29-51.3c11-12.8 8.8-24.4 6.2-35.7-0.9-0.2-1.8-0.8-2.5-1.9-8.3-11.9-22-4.6-54.1-24.8s-43.1-20.2-60.3-29.9c-17.2-9.7-19.5-25.1-37.8-44.3-18.3-19.2-7.3-64.1-42.1-90.7C284 406.6 264 459.5 264 517.1c0 6 0.2 12 0.7 18 5.8 1.7 12.4 5.7 19.7 13.2 29 29.8-7.3 11.4 43.8 41.1s70.6-9.3 91.2 58.5c17 56-31.5 48.9-56.7 65.2 40.6 30.2 90.9 48.1 145.4 48.1 113 0 208.1-76.9 235.8-181.1-1 0.3-2 0.4-2.9 0.3-20.3-1-24.9-32.2-26.7-56.1z" fill="#BBEAFF" p-id="3447"></path><path d="M359.5 455.6c18.3 19.3 20.6 34.6 37.8 44.3 17.2 9.8 28.2 9.8 60.3 29.9s45.8 12.8 54.1 24.8c0.8 1.1 1.6 1.7 2.5 1.9-1.5-6.5-3.2-12.9-2.5-19.3 0.7-7 6.9-10.3 14-11.7 0.3-0.1 0.6-0.1 1-0.2-0.8-1-2.1-1.4-4-0.9-13.8 3.7-9.2 4.6-35.8-7.3-26.6-11.9-40.3-37.6-20.2-36.7 20.2 0.9 30.3 14.7 41.3 8.3s-20.2-13.8 3.7-26.6c23.8-12.8 2.8-39.4 34.8-42.2 32.1-2.8 41.3 12.8 53.2-6.4 11.9-19.3-18.3-8.3-27.5-27.5-9.2-19.3-17.4-43.1-28.4-32.1s-22.9-6.4-25.7 0c-2.8 6.4 3.7 34.8-16.5 35.8-20.2 0.9-61.2-31.2-39.3-45.8 21.9-14.7 35.7-25.7 45.7-32.1s18.3 12.8 29.3 23.8 45.3-12.1 52 12.3c6.7 24.4-4.3 26.2 21.3 46.4 25.7 20.2 25.7-45.8 43.1-40.3 12.9 4.1 19.3-1.9 33.4-2.3-44.6-48.2-108.3-78.4-179.2-78.4-77.2 0-146 35.8-190.7 91.8 34.9 26.3 23.9 71.2 42.3 90.5z" fill="#7BD721" p-id="3448"></path><path d="M514.2 556.5c2.6 11.3 4.8 22.9-6.2 35.7-17.4 20.2 24.1 33.9 29 51.3 4.9 17.5-11.6 34.9-10.7 51.4 0.9 16.5-9.2 43.1 11 45.8 20.2 2.8 23.7-14.9 41.7-17.1 17.9-2.2 6-16.9 31.7-31.5 25.7-14.7 28.4-24 37.1-36.3 8.7-12.3 5.1-29.7 28.9-45.3 23.8-15.6-13.8-22.9-44-22.9s-39.4-11-44-20.2c-4.6-9.2-13.8-17.4-22-24.8-2.4-2.1-4.9-4.5-7.2-6.8-8.7-8.6-20.9-12.7-32.8-10.6 4.8 6-5.2 32.8-12.5 31.3z" fill="#6EC11D" p-id="3449"></path><path d="M512 539c-0.7 7 1.1 14 2.8 21.1 8 1.6 18.9-27.6 13.6-34.1-0.4 0.1-0.7 0.1-1.1 0.2-7.8 1.6-14.5 5.2-15.3 12.8z" fill="#6EC11D" p-id="3450"></path><path d="M715.3 388.4c-3.7 5.1-6.2 14.1-1 29.5 10.1 30.3 15.6 18.3 24.8 37.6 9.2 19.3-26.6 44.9-24.8 68.8 1.8 23.8 6.4 55 26.6 55.9 0.9 0 1.9-0.1 2.9-0.3 5.3-20.1 8.2-41.1 8.2-62.9 0-47.1-13.4-91.2-36.7-128.6zM419.2 647.8C398.7 580 379.1 619 328 589.3s-14.8-11.2-43.8-41.1c-7.3-7.5-13.9-11.5-19.7-13.2 5.3 72.9 42.6 136.8 97.9 178 25.4-16.3 73.8-9.2 56.8-65.2z" fill="#FFD500" p-id="3451"></path><path d="M676.9 260.1c-14.1 36.7-87.3 85-106.3 77.7-17.9-6.9-40.8-92.2-26.6-128.9s55.4-55 92.1-40.8c36.7 14.1 55 55.3 40.8 92z" fill="#EF8686" p-id="3452"></path><path d="M608.3 240.3m-35.9 0a35.9 35.9 0 1 0 71.8 0 35.9 35.9 0 1 0-71.8 0Z" fill="#FFFFFF" p-id="3453"></path></svg>