<?xml version="1.0" standalone="no"?><!DOCTYPE svg PUBLIC "-//W3C//DTD SVG 1.1//EN" "http://www.w3.org/Graphics/SVG/1.1/DTD/svg11.dtd"><svg t="1595919938411" class="icon" viewBox="0 0 1024 1024" version="1.1" xmlns="http://www.w3.org/2000/svg" p-id="54134" xmlns:xlink="http://www.w3.org/1999/xlink" width="200" height="200"><defs><style type="text/css"></style></defs><path d="M873.34427174 708.81241071H610.08732565c-18.17974603 0-32.90355097-14.72843285-32.90355175-32.9081781-12.84891251-12.84891251-18.06483092-28.4827848-11.63343281-34.89721546l93.078264-93.07749308c6.41751518-6.43062641 22.04675955-1.214708 34.89567283 11.63497622 12.84968423 12.84891251 18.06560185 28.47815767 11.63343359 34.89567207L656.61720298 642.99682467h216.72706876c18.17897509 0 32.90278003 14.72766114 32.90278005 32.90740794s-14.72380494 32.90817888-32.90278005 32.9081781zM774.62050683 527.82244145v16.45601714h-4.55650491c-5.7095137 9.79016169-16.2053633 16.45139002-28.34627512 16.45139002-12.14553895 0-22.64061684-6.66122832-28.35013133-16.45139002h-4.55727661v-59.36567862c-59.92328749 26.04565638-155.45102019 42.90966147-263.25231821 42.90966148-107.80129801 0-203.33442956-16.86400508-263.25231898-42.90966148V610.08787487h-1.57102191c23.64708998 18.77437503 149.66669604 32.90894979 273.04633609 32.9089498 14.02043138 0 27.72927983-0.19666703 41.13580199-0.55760884v0.55760884c18.17974603 0 32.90740717 14.72766114 32.90740794 32.90740795s-14.72843285 32.90817888-32.90740794 32.90817809c-2.81503767 0-5.48045443-0.46351739-8.09574058-1.11984484-13.55845662 0.59000109-27.19789347 1.11984484-41.26382832 1.11984484-107.80129801 0-203.33442956-16.86246246-263.25231819-42.9142886v141.63265546H116.49086656V215.21055358h1.28489133C130.73881458 160.00958845 272.37147004 116.49295843 445.55800065 116.49295843S760.3725588 160.00958845 773.34101434 215.21132528h1.27949249v312.61111617z m-65.81018797-304.38426476c-0.01773837-22.72314048-114.18796357-41.13040314-255.02932301-41.13040315s-255.02392416 18.40726267-255.02392415 41.13040315c0 22.72314048 114.18256474 41.13194578 255.02392415 41.13194578 140.84213035 0 255.01158462-18.40803437 255.02932301-41.13194578z m0 63.97385757c-60.02354947 26.04180018-155.4325109 42.97444597-263.25231821 42.97444596-107.81980808 0-203.23339663-16.93264578-263.25231898-42.97444596v141.69204033h-1.57102191c23.64708998 18.77360332 149.66669604 32.90740717 273.04633609 32.90740794 123.38426797 0 226.2673483-14.13380384 249.90903946-32.90740794h5.12028355V287.41203426zM453.78099585 840.4374138c14.02043138 0 27.72927983-0.20129416 41.13580199-0.56146504v0.56146504c18.17974603 0 32.90740717 14.72380494 32.90740794 32.90740718 0 18.17588983-14.72843285 32.90278003-32.90740794 32.90278003-2.77956093 0-5.44806218-0.44192204-8.03095607-1.10519174-13.59084887 0.57997512-27.24493958 1.10519174-41.32784112 1.10519174-173.18730155 0-314.81918529-43.51585831-327.78224276-98.71682344h62.9596728c23.64631828 18.77360332 149.66669604 32.90663623 273.04556516 32.90663623z m139.85493977-98.72222304H858.94516018c18.18360223 0 32.90740717 14.72843285 32.90740717 32.90817886 0 0.13111162-0.03239225 0.24602672-0.03239224 0.37790927 12.8867036 12.90135747 18.11573324 28.51517705 11.63420451 34.94657437l-94.19810961 93.66749417c-6.50003803 6.46456129-22.31206727 1.22010684-35.32602628-11.7144138-13.00007607-12.93220708-18.26149795-28.66094176-11.76145915-35.12473134l49.52384291-49.24542472H593.63593562c-18.17974603 0-32.90355097-14.72380494-32.90355096-32.90740795 0-18.17974603 14.72380494-32.90817888 32.90355096-32.90817886z m0 0" p-id="54135" fill="#ffffff"></path></svg>