<?xml version="1.0" standalone="no"?><!DOCTYPE svg PUBLIC "-//W3C//DTD SVG 1.1//EN" "http://www.w3.org/Graphics/SVG/1.1/DTD/svg11.dtd"><svg t="1595919900198" class="icon" viewBox="0 0 1024 1024" version="1.1" xmlns="http://www.w3.org/2000/svg" p-id="53313" xmlns:xlink="http://www.w3.org/1999/xlink" width="200" height="200"><defs><style type="text/css"></style></defs><path d="M117.57 826.02c-12.71 0-24.46 0.04-36.2-0.01-34.79-0.14-58.56-23.92-58.56-58.78-0.03-228.44-0.03-456.87 0-685.31 0-35.34 23.66-59.11 58.93-59.11 233.15-0.03 466.3-0.03 699.45 0 34.88 0.01 58.68 23.74 58.89 58.5 0.07 11.28 0.01 22.57 0.01 34.85h7.98c30.65 0 61.31 0.71 91.93-0.19 32.77-0.97 64.77 26.28 64.66 64.31-0.74 252.48-0.37 504.96-0.47 757.45 0 6.53-0.76 13.18-2.11 19.58-4.82 22.88-31.87 43.75-56.11 44.05-2.12 0.03-4.24 0.08-6.36 0.08-252.95 0-505.91 0.01-758.86 0-30.48 0-53.71-16.6-60.85-43.91-1.59-6.07-2.17-12.55-2.21-18.85-0.21-34.65-0.1-69.31-0.1-103.96-0.02-2.57-0.02-5.13-0.02-8.7z m840.32-267v-379.1c0-14.09-4.64-19.23-18.5-18.7-34.79 1.32-128.69 0.03-140.84 0.02-205.58-0.16-411.17-0.12-616.75-0.11-14.87 0-19.25 4.43-19.25 19.46v756.09c0 15.55 4.22 19.8 19.61 19.8h756.09c15.43 0 19.65-4.24 19.65-19.76-0.01-125.91-0.01-251.81-0.01-377.7zM117.57 792.28v-9.87c0-200.6-0.02-401.2 0.09-601.81 0-6.77 0.49-13.75 2.15-20.27 6.95-27.31 30.35-44.16 60.65-44.16 205.55-0.02 411.11-0.01 616.66-0.01h9.35c0-12.05 0.03-23.09-0.01-34.13-0.07-17.01-8.65-25.58-25.74-25.58-232.9-0.01-465.79-0.01-698.69 0.02-2.81 0-5.71 0.01-8.42 0.65-11.5 2.73-17.18 11.33-17.18 25.68v683.13c0 1.65-0.04 3.3 0.04 4.95 0.56 11.55 9.03 20.85 20.51 21.29 13.17 0.5 26.36 0.11 40.59 0.11z" p-id="53314" fill="#ffffff"></path><path d="M518.75 348.29v56.26c-9.66-1.24-18.64-2.47-27.64-3.53-38.15-4.51-76.32-8.81-114.85-6.39-17.11 1.07-33.45 5.34-48.79 12.99-20.18 10.06-28.26 35.08-17.67 54.98 4.92 9.25 12.04 16.36 21 22.26 30.82 20.29 65.61 31.54 99.65 44.39 28.77 10.86 55.86 23.85 76.47 47.6 32.28 37.18 35.45 101.05 6.57 140.12-14.34 19.4-34.6 30.11-57.16 36.89-34.82 10.46-70.66 11.42-106.47 9.23-32.87-2.01-65.61-6.02-98.41-9.21-2.08-0.2-4.11-0.85-6.33-1.32v-52.04c46.81 7.57 93.64 9.13 140.54 8.16 12.33-0.25 25.01-2.11 36.8-5.64 33.42-10.02 47.29-41.26 33.54-73.5-9.22-21.61-26.86-34.41-47.74-42.62-25.16-9.89-50.74-18.74-76.36-27.41-23.51-7.96-45.1-19.1-63.25-36.13-55.74-52.34-39.71-140.31 30.74-169.84 28.29-11.86 58.15-15.88 88.36-16.41 41.74-0.74 83.36 1.91 124.51 9.61 2.05 0.34 4.05 0.94 6.49 1.55zM673.41 759.97h50.31v27.77h-10.84c-9.43 0-18.86 0.05-28.29-0.01-17.91-0.12-25.67-6.28-29.94-23.62-0.34-1.36-0.83-2.69-1.42-4.59-13.35 0-26.75 0.14-40.15-0.03-27.56-0.35-49.36-16.44-56.23-41.88-1.57-5.83-2.07-12.1-2.1-18.17-0.17-44.79-0.16-89.58-0.07-134.37 0.07-35.76 24.14-59.71 60.02-59.86 16.74-0.07 33.48-0.1 50.21 0.01 33.95 0.23 58.57 23.52 59 57.28 0.59 46.91 0.6 93.83-0.03 140.74-0.42 32.48-14.69 47.4-50.47 56.73z m-5.46-127.16c0-22.38 0.03-44.75-0.03-67.13-0.01-3.52 0.05-7.14-0.72-10.53-3.22-14.2-16.31-23.26-31.11-21.87-13.96 1.31-24.98 13.55-25.03 28.58-0.15 46.17-0.1 92.33-0.05 138.5 0.02 18.23 11.87 31.17 28.33 31.19 16.63 0.02 28.52-12.73 28.59-30.91 0.09-22.61 0.02-45.22 0.02-67.83zM804.57 723.07H912.2v37.39H754.58V507.11h49.99v215.96z" p-id="53315" fill="#ffffff"></path></svg>