<?xml version="1.0" standalone="no"?><!DOCTYPE svg PUBLIC "-//W3C//DTD SVG 1.1//EN" "http://www.w3.org/Graphics/SVG/1.1/DTD/svg11.dtd"><svg t="1595919961242" class="icon" viewBox="0 0 1024 1024" version="1.1" xmlns="http://www.w3.org/2000/svg" p-id="54950" xmlns:xlink="http://www.w3.org/1999/xlink" width="200" height="200"><defs><style type="text/css"></style></defs><path d="M952.32 725.568v149.44c0 15.872-9.728 32.832-28.16 49.088-20.736 18.368-52.48 35.84-91.648 50.56-85.376 31.872-199.04 49.344-320.256 49.344-121.216 0-234.944-17.536-320.128-49.472-39.168-14.592-70.912-32.064-91.84-50.56-18.368-16.256-28.16-33.28-28.16-49.088v-148.608l24.32 15.552c22.72 14.208 46.784 26.176 71.872 35.584 91.2 35.392 213.12 54.912 343.36 54.912 130.176 0 252.8-19.52 344.064-55.232a402.24 402.24 0 0 0 72.256-35.84l24.32-15.68z m-118.784 117.824c-16.064 4.992-26.56 16.704-26.56 29.76 0 17.728 19.2 32.128 42.944 32.128 17.408 0 33.088-7.808 39.68-19.84 6.72-12.032 3.072-25.856-9.216-35.072a53.952 53.952 0 0 0-46.848-6.976z m118.72-359.808v176.128s-57.6 48.448-114.56 70.656c-84.608 32.832-203.456 51.712-325.952 51.712-122.496 0-241.024-18.752-325.376-51.456-66.688-25.792-108.16-58.688-113.92-90.24l-0.256-1.408V484.48l24.32 15.552a403.2 403.2 0 0 0 71.04 35.328c91.328 35.52 213.568 55.04 344.064 55.04s252.8-19.456 344.064-55.168a402.24 402.24 0 0 0 72.256-35.904l24.32-15.744zM849.92 600.448c-23.68 0-42.944 14.4-42.944 32.128s19.2 32.128 42.944 32.128c23.68 0 42.88-14.4 42.88-32.128s-19.2-32.128-42.88-32.128z m102.4-359.04v176.64s-57.728 48.384-114.688 70.592c-84.544 32.832-203.392 51.712-325.952 51.712-122.624 0-241.728-18.88-326.016-51.712-65.088-25.408-106.304-57.664-113.152-88.64l-0.32-1.664V242.56l24.256 15.488c22.592 14.08 46.528 25.92 71.488 35.328 91.2 35.52 213.184 55.04 343.68 55.04 130.56 0 252.672-19.52 343.68-55.104 25.344-9.6 49.728-21.696 72.64-36.16l24.32-15.744z m-101.504 117.888c-23.68 0-42.88 14.4-42.88 32.128s19.2 32.128 42.88 32.128c23.744 0 42.944-14.4 42.944-32.128s-19.2-32.128-42.88-32.128zM511.616 0c121.28 0 234.88 17.536 320.192 49.472 39.104 14.592 70.848 32.064 91.648 50.56 18.368 16.448 27.776 32.704 28.16 48.448v0.96c-0.192 16.256-10.368 33.472-29.376 49.92v0.128c-19.648 17.088-49.088 33.408-84.992 47.36-84.352 32.64-203.072 51.456-325.568 51.456-122.56 0-241.28-18.816-325.632-51.584-56.448-21.888-96.384-50.048-109.568-77.44l-1.472-3.2h-2.496L71.68 151.04V149.12c0-15.872 9.728-32.832 28.16-49.024 20.736-18.368 52.48-35.84 91.648-50.56C276.736 17.472 390.4 0 511.68 0z" fill="#ffffff" p-id="54951"></path></svg>