<?xml version="1.0" standalone="no"?><!DOCTYPE svg PUBLIC "-//W3C//DTD SVG 1.1//EN" "http://www.w3.org/Graphics/SVG/1.1/DTD/svg11.dtd"><svg t="1595919635823" class="icon" viewBox="0 0 1024 1024" version="1.1" xmlns="http://www.w3.org/2000/svg" p-id="50576" xmlns:xlink="http://www.w3.org/1999/xlink" width="200" height="200"><defs><style type="text/css"></style></defs><path d="M577.957 320C455.02 356.708 357.934 453.339 320.59 576H64c-35.346 0-64-28.654-64-64V384c0-35.346 28.654-64 64-64h513.957zM306.97 640A387.787 387.787 0 0 0 304 688c0 76.653 22.46 148.06 61.157 208H64c-35.346 0-64-28.654-64-64V704c0-35.346 28.654-64 64-64h242.97zM64 0h768c35.346 0 64 28.654 64 64v128c0 35.346-28.654 64-64 64H64c-35.346 0-64-28.654-64-64V64C0 28.654 28.654 0 64 0z m624 1024c-185.568 0-336-150.432-336-336s150.432-336 336-336 336 150.432 336 336-150.432 336-336 336z m65.642-133.878c9.015 27.046 46.23 29.69 58.98 4.192l55.155-110.311H912c17.673 0 32-14.327 32-32 0-17.673-14.327-32-32-32h-64a32 32 0 0 0-28.622 17.689l-29.45 58.901-103.57-310.71c-9.015-27.046-46.23-29.69-58.98-4.191l-119.155 238.31H464c-17.673 0-32 14.328-32 32 0 17.674 14.327 32 32 32h64a32 32 0 0 0 28.622-17.688l93.45-186.902 103.57 310.71z" fill="#ffffff" p-id="50577"></path></svg>