<?xml version="1.0" standalone="no"?><!DOCTYPE svg PUBLIC "-//W3C//DTD SVG 1.1//EN" "http://www.w3.org/Graphics/SVG/1.1/DTD/svg11.dtd"><svg t="1595918280137" class="icon" viewBox="0 0 1024 1024" version="1.1" xmlns="http://www.w3.org/2000/svg" p-id="24218" xmlns:xlink="http://www.w3.org/1999/xlink" width="200" height="200"><defs><style type="text/css"></style></defs><path d="M503.5008 989.781333L85.230933 768.085333v-539.306666L503.5008 51.3536 921.770667 228.778667v539.306666l-418.269867 221.696zM898.048 244.7872L503.5008 77.4144 108.9536 244.7872v508.740267l394.5472 209.134933L898.048 753.527467V244.7872z m-19.370667 490.018133L514.116267 931.9936V444.416l364.561066-161.3312v451.720533zM128.324267 260.898133l375.176533-159.453866 375.176533 159.453866-375.176533 162.013867-375.176533-162.013867z m364.578133 671.095467L128.324267 734.805333V283.0848l364.578133 161.3312v487.5776z" fill="#ffffff" p-id="24219"></path><path d="M754.7904 705.826133v-21.384533l80.861867-43.008v21.367467l-80.861867 43.025066z m0-72.192l80.861867-43.008v21.384534l-80.861867 43.025066v-21.4016z m-105.0624-50.3296l-21.486933 11.1104v-40.123733l-40.2944 20.8384v-21.384533l40.2944-20.821334v-40.106666l21.486933-11.1104v40.0896l40.277333-20.804267v21.367467l-40.277333 20.8384v40.106666z" fill="#ffffff" p-id="24220"></path><path d="M754.7904 493.789867V472.405333l80.861867-43.008v21.384534l-80.861867 43.008zM674.816 749.1584l-28.484267-13.636267-28.501333 43.093334-15.172267-7.2704 28.484267-43.093334-28.484267-13.6192 15.172267-22.971733 28.501333 13.6192L674.816 662.186667l15.189333 7.287466-28.484266 43.076267 28.484266 13.636267-15.189333 22.971733z" fill="#ffffff" p-id="24221"></path></svg>