<?xml version="1.0" standalone="no"?><!DOCTYPE svg PUBLIC "-//W3C//DTD SVG 1.1//EN" "http://www.w3.org/Graphics/SVG/1.1/DTD/svg11.dtd"><svg t="1595918133311" class="icon" viewBox="0 0 1024 1024" version="1.1" xmlns="http://www.w3.org/2000/svg" p-id="16788" xmlns:xlink="http://www.w3.org/1999/xlink" width="200" height="200"><defs><style type="text/css"></style></defs><path d="M182.384375 64.895009c0 34.275641 0 68.551282 0 103.59952 17.153682 0 34.056654 0 51.287083 0 0 17.48114 0 34.19173 0 51.446719-16.975627 0-33.719986 0-50.953486 0 0 17.450441 0 34.369785 0 52.067866 16.746406 0 33.647331 0 50.91767 0 0 17.48114 0 34.190707 0 51.446719-16.866133 0-33.610492 0-50.881854 0 0 17.449417 0 34.370809 0 52.069913 16.632819 0 33.537837 0 50.845015 0 0 17.477047 0 34.187637 0 51.674916-16.909112 0-33.810037 0-51.037397 0 0 17.691941 0 34.608216 0 52.069913 17.067724 0 33.81106 0 51.000558 0 0 17.245779 0 33.955346 0 51.445696-16.798595 0-33.69952 0-50.963719 0 0 17.689894 0 34.605146 0 52.068889 16.956184 0 33.69952 0 50.927903 0 0 17.243733 0 33.958416 0 51.445696-16.687054 0-33.589003 0-50.890041 0 0 17.686824 0 34.605146 0 52.069913 16.845667 0 33.590026 0 50.853202 0 0 17.241686 0 33.954323 0 51.443649-16.579607 0-33.478486 0-50.818409 0 0 34.95307 0 69.133543 0 103.770412 42.813085 0 85.626169 0 129.213897 0 0-16.867156 0-33.767058 0-50.995441 17.482163 0 34.19173 0 51.446719 0 0 16.980743 0 33.724079 0 50.956555 17.452487 0 34.371832 0 52.068889 0 0-16.752546 0-33.654494 0-50.92074 17.48114 0 34.190707 0 51.445696 0 0 16.870226 0 33.614585 0 50.882877 17.450441 0 34.369785 0 52.068889 0 0-16.641005 0-33.540907 0-50.848085 17.479093 0 34.187637 0 51.674916 0 0 16.915251 0 33.8172 0 51.040467 17.690918 0 34.608216 0 52.069913 0 0-17.072841 0-33.81413 0-51.002604 17.246803 0 33.958416 0 51.444673 0 0 16.805758 0 33.704636 0 50.968835 17.690918 0 34.607192 0 52.070936 0 0-16.965393 0-33.706683 0-50.931996 17.245779 0 33.958416 0 51.444673 0 0 16.693194 0 33.593096 0 50.895157 17.686824 0 34.605146 0 52.071959 0 0-16.85283 0-33.596166 0-50.858318 17.240663 0 33.952276 0 51.444673 0 0 16.582677 0 33.484625 0 51.106981 26.565029 0 52.361555 0 78.160127 0 0 17.264199 0 34.529421 0 51.79362-276.235368 0-552.47176 0-828.708152 0 0-276.234345 0-552.47176 0-828.707129C147.854954 64.895009 165.119153 64.895009 182.384375 64.895009zM519.547395 737.524406c0-189.413977 0-378.724601 0-568.45785 51.358715 0 102.585423 0 154.267503 0 0 189.29732 0 378.608967 0 568.45785C622.648564 737.524406 571.26836 737.524406 519.547395 737.524406zM571.073932 220.383316c0 155.695015 0 310.663482 0 465.821261 17.308201 0 34.217313 0 51.214429 0 0-155.50468 0-310.624597 0-465.821261C605.019045 220.383316 588.261383 220.383316 571.073932 220.383316zM880.939235 737.792513c-51.624774 0-102.696963 0-154.161079 0 0-155.049309 0-309.832558 0-465.089597 51.201126 0 102.426811 0 154.161079 0C880.939235 427.469791 880.939235 582.40756 880.939235 737.792513zM829.536518 686.278255c0-121.208573 0-241.649666 0-362.148064-17.35118 0-34.260292 0-51.125401 0 0 121.017214 0 241.608733 0 362.148064C795.721365 686.278255 812.476981 686.278255 829.536518 686.278255zM312.272631 737.529523c0-120.66929 0-240.773715 0-361.29258 51.462069 0 102.685707 0 154.363693 0 0 120.244618 0 240.504586 0 361.29258C415.463852 737.529523 364.089787 737.529523 312.272631 737.529523zM415.213141 686.315094c0-86.647429 0-172.560124 0-258.633479-17.314341 0-34.220383 0-51.189869 0 0 86.454024 0 172.520215 0 258.633479C381.297704 686.315094 398.052297 686.315094 415.213141 686.315094z" p-id="16789" fill="#ffffff"></path></svg>