<?xml version="1.0" standalone="no"?><!DOCTYPE svg PUBLIC "-//W3C//DTD SVG 1.1//EN" "http://www.w3.org/Graphics/SVG/1.1/DTD/svg11.dtd"><svg t="1595918071038" class="icon" viewBox="0 0 1024 1024" version="1.1" xmlns="http://www.w3.org/2000/svg" p-id="15185" xmlns:xlink="http://www.w3.org/1999/xlink" width="200" height="200"><defs><style type="text/css"></style></defs><path d="M73.045333 0.887467h876.407467c36.522667 0 73.045333 29.0816 73.045333 73.045333v652.219733c0 36.522667-36.522667 73.045333-73.045333 73.045334l-401.749333 2.2528v149.504h292.6592c21.845333 0 36.4544 14.5408 36.4544 36.522666 0 21.845333-14.5408 36.522667-36.4544 36.522667l-657.8176-0.682667c-21.845333 0-36.4544-14.609067-36.4544-36.522666 0-21.845333 14.5408-36.590933 36.4544-36.590934l292.181333 0.682667v-223.232l438.272-1.501867c21.845333 0 36.4544-14.5408 36.4544-36.4544V110.3872c0-21.845333-14.5408-36.522667-36.4544-36.522667H109.568c-21.845333 0-36.4544 14.5408-36.4544 36.522667v580.744533c0 21.845333 14.5408 36.522667 36.4544 36.522667h365.1584v72.9088H72.977067c-36.4544 0-72.977067-36.522667-72.977067-73.045333V73.9328C0 30.037333 36.522667 0.8192 73.045333 0.887467zM512 477.866667a34.133333 34.133333 0 0 1-34.133333-33.928534V170.461867a34.133333 34.133333 0 0 1 68.266666 0v273.476266A34.133333 34.133333 0 0 1 512 477.866667z m0 68.266666a34.133333 34.133333 0 1 1 0 68.266667 34.133333 34.133333 0 0 1 0-68.266667z" p-id="15186" fill="#ffffff"></path></svg>