<?xml version="1.0" standalone="no"?><!DOCTYPE svg PUBLIC "-//W3C//DTD SVG 1.1//EN" "http://www.w3.org/Graphics/SVG/1.1/DTD/svg11.dtd"><svg t="1595919972093" class="icon" viewBox="0 0 1024 1024" version="1.1" xmlns="http://www.w3.org/2000/svg" p-id="55773" xmlns:xlink="http://www.w3.org/1999/xlink" width="200" height="200"><defs><style type="text/css"></style></defs><path d="M514.96533334 294.26333333c-116.67 0-211.25 94.58-211.25 211.25s94.58 211.25 211.25 211.25 211.25-94.58 211.25-211.25-94.58-211.25-211.25-211.25z m0 381.328c-93.931 0-170.077-76.146-170.077-170.078S421.03333334 335.43633333 514.96533334 335.43633333 685.04333334 411.58233333 685.04333334 505.51333333s-76.146 170.078-170.078 170.078z" fill="#ffffff" p-id="55774"></path><path d="M920.72333334 565.46333333c-2.28-1.264-4.586-2.443-6.816-3.582-3.233-1.652-6.289-3.214-9.184-4.972-15.856-9.627-26.173-24.967-28.303-42.088-2.153-17.291 4.186-34.904 17.39-48.321 8.832-8.974 19.903-14.72 31.624-20.802l2.466-1.281c24.269-12.64 36.35-32.81 34.024-56.796-3.729-38.415-14.03-69.812-31.493-95.984-16.345-24.495-33.47-35.417-55.528-35.417-8.906 0-18.778 1.8-30.184 5.505-7.97 2.589-17.369 5.448-26.667 7.034-3 0.512-6.076 0.77-9.145 0.77-25.515 0.002-49.214-17.903-55.127-41.646-3.451-13.866-1.857-28.82 4.879-45.718 10.382-26.054 4.517-50.018-17.43-71.224-11.272-10.892-26.753-24.305-46.563-31.396-25.44-9.107-45.891-15.172-63.004-15.172-27.671 0-46.47 14.957-67.049 53.344-10.113 18.864-27.908 29.684-48.822 29.686-20.669 0.001-40.31-10.865-52.54-29.068-2.76-4.106-5.072-8.593-7.52-13.344-1.939-3.763-3.944-7.656-6.233-11.436-11.735-19.38-28.757-29.625-49.224-29.625-2.576 0-5.24 0.165-7.914 0.488-21.064 2.55-45.573 6.6-67.657 17.3-62.027 30.052-68.058 56.34-58.119 103.899 8.69 41.572-6.518 71.101-40.681 78.987-4.91 1.132-9.89 1.684-15.225 1.684-10.205 0-21.14-1.99-35.458-6.45-7.559-2.356-14.908-3.55-21.844-3.55-18.608 0-34.849 8.431-48.27 25.058-14.514 17.982-24.689 39.261-32.02 66.967-13.986 52.857-2.048 80.527 45.617 105.738 18.85 9.97 31.311 24.181 35.09 40.016 3.248 13.607 0.014 27.797-9.353 41.034-8.993 12.713-21.618 22.473-38.596 29.839-23.912 10.376-36.848 29.22-37.41 54.494-1.028 46.196 14.08 86.335 44.902 119.302 11.397 12.19 25.922 18.37 43.173 18.37 3.914 0 8.014-0.327 12.183-0.973 4.711-0.73 9.342-1.743 13.82-2.725 7.85-1.72 15.267-3.346 22.409-3.346 1.883 0 3.633 0.11 5.349 0.338l0.974 0.13 0.974-0.13a54.3 54.3 0 0 1 7.095-0.476c15.162 0 28.587 6.96 36.83 19.093 8.646 12.725 10.306 29.164 4.439 43.972-1.375 3.468-2.34 6.946-3.274 10.31-0.732 2.633-1.423 5.12-2.27 7.485-9.946 27.727-4.145 51.735 17.242 71.356 21.613 19.83 48.658 33.656 82.678 42.268 16.676 4.224 28.707 6.105 39.01 6.105 30.642 0 46.888-17.78 66.146-50.588 13.835-23.569 31.435-35.025 53.805-35.025 0.28 0 0.56 0.002 0.842 0.005 22.457 0.282 39.173 11.296 52.6 34.66 1.496 2.598 2.868 5.27 4.321 8.1 2.023 3.936 4.115 8.008 6.596 11.942 12.863 20.396 30.73 30.738 53.098 30.738 3.743 0 7.68-0.29 11.7-0.863 30.79-4.386 59.34-15.009 84.857-31.575 33.727-21.896 44.113-52.399 30.032-88.21-8.564-21.781-7.257-44.211 3.5-59.999 9.155-13.438 24.18-20.54 43.453-20.54 4.258 0 8.759 0.354 13.376 1.051 1.335 0.203 2.674 0.399 4.011 0.595 5.432 0.796 10.56 1.547 15.622 2.674 9.993 2.223 18.88 3.303 27.17 3.303h0.004c29.114 0 50.551-13.405 69.504-43.463 13.588-21.55 21.717-45.893 24.85-74.422 3.571-32.511-9.46-57.218-38.731-73.433zM718.50833334 832.72733333c11.074 35.982 8.398 42.76-23.863 60.428-9.844 5.39-18.566 9.225-26.669 11.723-15.664 4.831-26.388 7.628-34.843 7.629-11.868 0-20.314-5.065-33.545-32.751-16.424-34.37-46.904-53.298-85.824-53.298l-0.453 0.001c-36.017 0.136-65.34 18.824-87.157 55.541-15.077 25.373-19.445 30.817-31.471 30.817-6.43 0-14.949-1.558-27.486-4.248-25.47-5.466-48.222-16.744-67.628-33.521-11.9-10.287-14.382-19.94-8.57-33.32 7.52-17.311 14.531-38.234 9.51-62.156-8.881-42.304-39.946-68.584-81.07-68.584-4.636 0-9.419 0.339-14.216 1.007-8.7 1.21-15.857 2.283-22.53 3.374-10.506 1.717-17.764 2.485-23.533 2.485-16.721 0-23.609-6.083-36.85-32.548-5.51-11.012-9.91-23.05-12.725-34.814-4.726-19.75-5.337-28.604-2.423-35.088 3.24-7.207 12.319-13.353 27.939-22.175 51.51-29.091 71.854-82.488 48.373-126.965-11.973-22.679-30.792-39.757-55.933-50.76-17.148-7.505-23.858-19.304-21.756-38.262 2.937-26.481 12.187-49.93 27.493-69.698 7.154-9.24 14.039-13.36 22.324-13.36 3.203 0 6.768 0.614 10.599 1.828 14.957 4.737 29.66 8.99 45.108 8.99 4.413 0 8.742-0.363 12.87-1.078 31.908-5.529 53.722-18.432 66.687-39.447 10.885-17.643 15.568-40.337 15.184-73.58-0.021-1.879-0.512-3.449-0.837-4.487-0.074-0.234-0.156-0.464-0.202-0.67-7.586-44.686-2.325-53.912 40.204-70.523 8.326-3.252 16.52-5.867 24.353-7.775 12.524-3.05 21.892-5.207 28.39-5.207 10.032 0 14.045 5.28 28.346 29.892 20.548 35.366 49.698 53.296 86.641 53.296 0.539 0 1.075-0.004 1.617-0.012 37.543-0.538 67.829-19.432 87.584-54.638 12.91-23.012 18.07-27.98 29.05-27.98 6.311 0 14.637 1.682 25.196 4.206 17.368 4.153 30.227 9.571 40.466 17.052 17.135 12.52 25.052 20.73 27.322 28.34 2.168 7.26-0.37 15.558-5.043 29.6-10.092 30.339-5.867 61.625 11.593 85.835 17.795 24.673 46.922 38.823 79.913 38.823 0.269 0 0.532 0 0.798-0.002 1.327 0.1 2.702 0.15 4.095 0.15 15.134 0 31.866-5.877 46.628-11.062 3.883-1.364 7.494-2.056 10.73-2.056 6.806 0 12.486 3.01 17.873 9.475 19.907 23.887 30.435 52.745 32.186 88.226 0.592 11.976-7.764 16.911-21.448 23.97l-0.213 0.111c-22.505 11.614-53.33 31.831-61.156 73.144-8.34 44.03 10.03 84.007 46.803 101.848 42.09 20.421 40.415 33.027 27.365 78.001-3.169 10.924-9.449 21.967-19.763 34.754-8.789 10.896-18.659 16.193-30.175 16.193-4.098 0-8.495-0.68-13.072-2.021-16.367-4.794-31.045-7.125-44.868-7.125-6.611 0-13.14 0.547-19.405 1.624-25.49 4.39-46.767 18.59-59.912 39.991-14.18 23.076-17.313 52.547-8.601 80.857z" fill="#ffffff" p-id="55775"></path></svg>