<?xml version="1.0" standalone="no"?><!DOCTYPE svg PUBLIC "-//W3C//DTD SVG 1.1//EN" "http://www.w3.org/Graphics/SVG/1.1/DTD/svg11.dtd"><svg t="1595918043498" class="icon" viewBox="0 0 1024 1024" version="1.1" xmlns="http://www.w3.org/2000/svg" p-id="14361" xmlns:xlink="http://www.w3.org/1999/xlink" width="200" height="200"><defs><style type="text/css"></style></defs><path d="M896.3 139.6H131.9c-37.3 0-67.7 30-67.7 66.8V825c0 34.8 28.7 63.1 63.9 63.1h768.2c35.2 0 63.9-28.3 63.9-63.1V202.7c0-34.8-28.7-63.1-63.9-63.1z m-764.4 54h764.4c5 0 9.2 4.1 9.2 9.1v159.9H118.9V206.4c0-6.9 6-12.8 13-12.8z m250.7 223h522.8v175H382.6v-175z m-54 175H118.9v-175h209.7v175zM118.9 825V645.6h209.7v188.5H128.1c-5 0-9.2-4.2-9.2-9.1z m777.4 9.1H382.6V645.6h522.8V825c0.1 4.9-4.1 9.1-9.1 9.1z" p-id="14362" fill="#ffffff"></path></svg>